<svg version="1.1" id="Layer_1" xmlns="http://www.w3.org/2000/svg" xmlns:xlink="http://www.w3.org/1999/xlink" x="0px" y="0px"
	 width="100%" viewBox="0 0 512 512" enable-background="new 0 0 512 512" xml:space="preserve">
<path fill="#FFFF00" opacity="1.000000" stroke="none" 
	d="
M247.000000,513.000000 
	C164.686630,513.000000 82.873260,513.000000 1.029946,513.000000 
	C1.029946,342.394928 1.029946,171.789871 1.029946,1.092401 
	C171.563385,1.092401 342.126862,1.092401 512.845154,1.092401 
	C512.845154,171.666565 512.845154,342.333252 512.845154,513.000000 
	C424.456512,513.000000 335.978241,513.000000 247.000000,513.000000 
M411.566742,347.006256 
	C432.799316,347.006256 454.031860,347.006256 475.328979,347.006256 
	C475.328979,343.635864 475.328979,341.009430 475.328979,338.155426 
	C467.184235,336.273560 459.158173,334.419159 451.243408,332.590454 
	C451.243408,282.039886 451.243408,231.943863 451.243408,181.641266 
	C459.573883,179.665649 467.733215,177.730637 475.738403,175.832169 
	C475.738403,172.692719 475.738403,170.079117 475.738403,167.231567 
	C456.791992,167.231567 438.041595,167.231567 419.156006,167.231567 
	C399.652344,216.877213 380.169678,266.469452 360.333954,316.960297 
	C359.265381,314.562958 358.624359,313.236145 358.073486,311.872864 
	C339.964600,267.055878 321.862762,222.236023 303.764038,177.414932 
	C299.557098,166.996506 299.563965,166.993729 288.045319,166.993729 
	C279.714325,166.993729 271.383362,166.993729 263.052368,166.993729 
	C258.101257,166.993729 253.150146,166.993729 248.126160,166.993729 
	C248.126160,170.271637 248.126160,173.037292 248.126160,175.910217 
	C253.357407,177.531937 258.364655,179.408447 263.531830,180.578690 
	C267.341919,181.441544 268.394348,183.143661 268.382111,187.013794 
	C268.234497,233.833435 268.286499,280.653717 268.286499,327.473846 
	C268.286499,329.237427 268.286499,331.001007 268.286499,332.582977 
	C260.136780,334.565735 252.738113,336.365753 245.483917,338.130646 
	C245.483917,341.254211 245.483917,343.996338 245.483917,346.700500 
	C265.388458,346.700500 284.966644,346.700500 304.691406,346.700500 
	C304.691406,343.770874 304.691406,341.146637 304.691406,338.187775 
	C296.808563,336.328278 288.958649,334.476593 281.119324,332.627380 
	C281.119324,283.126160 281.119324,233.955200 281.119324,184.784225 
	C281.350037,184.729156 281.580780,184.674088 281.811493,184.619003 
	C303.243683,238.733276 324.675873,292.847534 346.125671,347.006256 
	C348.917297,347.006256 351.460205,346.693146 353.896149,347.070435 
	C359.218475,347.894775 361.451172,345.660309 363.403076,340.651154 
	C383.186310,289.882172 403.302155,239.242783 423.338989,188.572693 
	C423.904297,187.143051 424.628326,185.776169 425.696838,183.481201 
	C425.696838,233.963730 425.696838,283.338287 425.696838,332.641571 
	C417.823395,334.522217 410.247040,336.331909 402.803833,338.109802 
	C402.803833,341.258942 402.803833,344.025604 402.803833,347.006256 
	C405.608948,347.006256 408.100189,347.006256 411.566742,347.006256 
M51.826530,202.319046 
	C50.180130,205.579010 48.317013,208.749084 46.921917,212.113266 
	C36.591442,237.024643 36.055347,262.715240 42.164726,288.528351 
	C47.434895,310.795593 59.606461,328.715912 79.594307,340.533539 
	C95.610481,350.002991 113.225014,352.482025 131.551300,351.142151 
	C160.882217,348.997681 183.004868,335.236847 197.142303,309.494781 
	C210.407928,285.340179 211.815689,259.228119 206.793076,232.824417 
	C197.868988,185.910843 159.506744,154.856308 105.882584,164.379562 
	C82.557396,168.521957 64.826630,181.690384 51.826530,202.319046 
z"/>
<path fill="#030300" opacity="1.000000" stroke="none" 
	d="
M411.079102,347.006256 
	C408.100189,347.006256 405.608948,347.006256 402.803833,347.006256 
	C402.803833,344.025604 402.803833,341.258942 402.803833,338.109802 
	C410.247040,336.331909 417.823395,334.522217 425.696838,332.641571 
	C425.696838,283.338287 425.696838,233.963730 425.696838,183.481201 
	C424.628326,185.776169 423.904297,187.143051 423.338989,188.572693 
	C403.302155,239.242783 383.186310,289.882172 363.403076,340.651154 
	C361.451172,345.660309 359.218475,347.894775 353.896149,347.070435 
	C351.460205,346.693146 348.917297,347.006256 346.125671,347.006256 
	C324.675873,292.847534 303.243683,238.733276 281.811493,184.619003 
	C281.580780,184.674088 281.350037,184.729156 281.119324,184.784225 
	C281.119324,233.955200 281.119324,283.126160 281.119324,332.627380 
	C288.958649,334.476593 296.808563,336.328278 304.691406,338.187775 
	C304.691406,341.146637 304.691406,343.770874 304.691406,346.700500 
	C284.966644,346.700500 265.388458,346.700500 245.483917,346.700500 
	C245.483917,343.996338 245.483917,341.254211 245.483917,338.130646 
	C252.738113,336.365753 260.136780,334.565735 268.286499,332.582977 
	C268.286499,331.001007 268.286499,329.237427 268.286499,327.473846 
	C268.286499,280.653717 268.234497,233.833435 268.382111,187.013794 
	C268.394348,183.143661 267.341919,181.441544 263.531830,180.578690 
	C258.364655,179.408447 253.357407,177.531937 248.126160,175.910217 
	C248.126160,173.037292 248.126160,170.271637 248.126160,166.993729 
	C253.150146,166.993729 258.101257,166.993729 263.052368,166.993729 
	C271.383362,166.993729 279.714325,166.993729 288.045319,166.993729 
	C299.563965,166.993729 299.557098,166.996506 303.764038,177.414932 
	C321.862762,222.236023 339.964600,267.055878 358.073486,311.872864 
	C358.624359,313.236145 359.265381,314.562958 360.333954,316.960297 
	C380.169678,266.469452 399.652344,216.877213 419.156006,167.231567 
	C438.041595,167.231567 456.791992,167.231567 475.738403,167.231567 
	C475.738403,170.079117 475.738403,172.692719 475.738403,175.832169 
	C467.733215,177.730637 459.573883,179.665649 451.243408,181.641266 
	C451.243408,231.943863 451.243408,282.039886 451.243408,332.590454 
	C459.158173,334.419159 467.184235,336.273560 475.328979,338.155426 
	C475.328979,341.009430 475.328979,343.635864 475.328979,347.006256 
	C454.031860,347.006256 432.799316,347.006256 411.079102,347.006256 
z"/>
<path fill="#030300" opacity="1.000000" stroke="none" 
	d="
M51.990463,201.993896 
	C64.826630,181.690384 82.557396,168.521957 105.882584,164.379562 
	C159.506744,154.856308 197.868988,185.910843 206.793076,232.824417 
	C211.815689,259.228119 210.407928,285.340179 197.142303,309.494781 
	C183.004868,335.236847 160.882217,348.997681 131.551300,351.142151 
	C113.225014,352.482025 95.610481,350.002991 79.594307,340.533539 
	C59.606461,328.715912 47.434895,310.795593 42.164726,288.528351 
	C36.055347,262.715240 36.591442,237.024643 46.921917,212.113266 
	C48.317013,208.749084 50.180130,205.579010 51.990463,201.993896 
M122.629990,172.234177 
	C95.898643,173.096664 80.529968,187.568039 72.922897,211.035583 
	C63.524342,240.029831 64.103844,269.471008 71.351479,298.747192 
	C74.888947,313.036469 81.615166,325.916931 94.614456,334.214722 
	C123.165680,352.439667 161.882568,339.131592 173.866089,306.284729 
	C184.930161,275.958099 184.755753,244.798431 176.188202,213.947800 
	C168.948807,187.879593 152.040634,172.670197 122.629990,172.234177 
z"/>
<path fill="#FEFE00" opacity="1.000000" stroke="none" 
	d="
M123.068848,172.214920 
	C152.040634,172.670197 168.948807,187.879593 176.188202,213.947800 
	C184.755753,244.798431 184.930161,275.958099 173.866089,306.284729 
	C161.882568,339.131592 123.165680,352.439667 94.614456,334.214722 
	C81.615166,325.916931 74.888947,313.036469 71.351479,298.747192 
	C64.103844,269.471008 63.524342,240.029831 72.922897,211.035583 
	C80.529968,187.568039 95.898643,173.096664 123.068848,172.214920 
z"/>
</svg>